<svg id="svg" version="1.1" xmlns="http://www.w3.org/2000/svg" xmlns:xlink="http://www.w3.org/1999/xlink" width="400" height="400" viewBox="0, 0, 400,400"><g id="svgg"><path id="path0" d="M0.000 200.000 L 0.000 400.000 200.000 400.000 L 400.000 400.000 400.000 200.000 L 400.000 0.000 200.000 0.000 L 0.000 0.000 0.000 200.000 M219.830 30.208 C 224.392 30.843,226.454 31.353,227.800 32.181 C 229.001 32.920,230.450 33.201,236.179 33.807 C 241.667 34.388,244.439 35.129,245.789 36.378 C 246.775 37.291,248.668 37.792,253.400 38.395 C 256.954 38.848,259.932 39.852,261.244 41.040 C 261.615 41.375,263.558 41.914,265.563 42.236 C 270.078 42.963,270.597 43.160,272.746 44.955 C 273.699 45.751,275.443 46.681,276.632 47.026 C 277.818 47.371,279.528 48.271,280.432 49.027 C 281.426 49.857,283.175 50.734,284.860 51.246 C 286.904 51.867,287.873 52.401,288.507 53.259 C 289.168 54.154,290.138 54.661,292.664 55.431 C 295.037 56.155,296.226 56.753,296.913 57.570 C 297.438 58.194,298.662 59.056,299.634 59.487 C 300.605 59.918,302.300 61.110,303.400 62.137 C 304.500 63.163,305.971 64.274,306.670 64.606 C 307.368 64.938,308.501 65.917,309.186 66.783 C 309.872 67.648,310.830 68.477,311.316 68.623 C 312.377 68.943,314.400 70.767,314.400 71.404 C 314.400 71.653,315.304 72.266,316.409 72.765 C 317.655 73.328,318.638 74.099,318.998 74.795 C 319.323 75.424,320.362 76.297,321.360 76.781 C 322.340 77.255,324.017 78.488,325.087 79.522 C 326.157 80.555,327.565 81.850,328.216 82.400 C 328.867 82.951,330.020 84.211,330.778 85.200 C 331.535 86.190,333.029 87.944,334.097 89.097 C 335.165 90.250,336.220 91.690,336.440 92.297 C 336.660 92.904,337.416 93.760,338.120 94.200 C 338.824 94.640,339.740 95.696,340.155 96.546 C 340.570 97.396,341.525 98.455,342.278 98.899 C 343.069 99.366,343.974 100.400,344.424 101.353 C 344.851 102.259,345.731 103.301,346.379 103.669 C 347.094 104.075,348.025 105.264,348.745 106.691 C 349.398 107.984,350.488 109.638,351.168 110.365 C 351.860 111.106,352.681 112.644,353.035 113.862 C 353.462 115.329,354.165 116.528,355.198 117.552 C 356.564 118.904,358.000 122.109,358.000 123.806 C 358.000 124.059,358.687 124.818,359.526 125.492 C 360.762 126.485,361.214 127.257,361.904 129.555 C 362.551 131.705,363.133 132.755,364.312 133.896 C 365.665 135.204,365.957 135.825,366.560 138.667 C 366.960 140.552,367.488 142.025,367.808 142.148 C 368.775 142.519,369.867 145.267,370.691 149.401 C 371.218 152.043,371.839 153.917,372.520 154.920 C 373.900 156.953,374.237 158.153,375.015 163.800 C 375.403 166.620,376.066 169.508,376.620 170.800 C 379.155 176.707,380.064 193.435,379.218 218.600 C 378.720 233.436,378.468 235.156,376.199 239.227 C 375.884 239.791,375.340 242.575,374.991 245.412 C 374.134 252.360,373.694 254.226,372.609 255.516 C 371.630 256.680,371.216 257.945,370.183 262.923 C 369.708 265.214,369.224 266.401,368.366 267.377 C 367.590 268.261,366.950 269.698,366.461 271.654 C 365.622 275.012,364.736 276.918,363.662 277.676 C 362.758 278.314,361.797 280.133,361.407 281.945 C 361.247 282.685,360.521 283.950,359.792 284.756 C 359.064 285.562,357.979 287.444,357.380 288.938 C 356.721 290.585,355.862 291.974,355.199 292.464 C 354.576 292.925,353.891 293.990,353.608 294.936 C 352.902 297.299,351.614 299.709,350.721 300.338 C 350.300 300.634,349.540 301.817,349.032 302.967 C 348.523 304.117,347.612 305.447,347.008 305.922 C 346.404 306.398,345.414 307.555,344.808 308.493 C 344.203 309.432,343.136 310.736,342.437 311.391 C 341.739 312.045,340.625 313.427,339.962 314.460 C 339.299 315.493,338.134 316.813,337.374 317.392 C 336.614 317.972,335.633 319.152,335.192 320.015 C 334.752 320.878,333.853 321.862,333.194 322.203 C 332.535 322.544,331.682 323.485,331.298 324.295 C 330.914 325.104,329.933 326.224,329.119 326.783 C 328.304 327.342,327.217 328.430,326.705 329.200 C 326.192 329.970,325.120 330.908,324.324 331.285 C 323.527 331.662,322.484 332.520,322.006 333.191 C 321.528 333.863,320.624 334.677,319.997 335.002 C 319.370 335.326,317.809 336.511,316.528 337.635 C 315.248 338.759,313.358 340.107,312.330 340.631 C 311.301 341.155,310.338 341.965,310.190 342.431 C 310.025 342.951,309.098 343.643,307.791 344.221 C 306.381 344.845,305.481 345.541,305.126 346.281 C 304.829 346.902,303.753 347.853,302.709 348.417 C 301.675 348.976,300.237 350.091,299.514 350.895 C 298.303 352.242,295.420 353.600,293.773 353.600 C 293.443 353.600,292.560 354.213,291.811 354.962 C 290.574 356.199,286.784 358.000,285.418 358.000 C 285.114 358.000,284.149 358.688,283.273 359.530 C 282.083 360.673,280.912 361.288,278.637 361.963 C 276.697 362.539,275.443 363.145,275.182 363.633 C 274.494 364.919,273.102 365.566,269.260 366.387 C 266.960 366.879,265.098 367.534,264.291 368.137 C 262.673 369.345,261.049 369.848,257.012 370.389 C 253.204 370.900,250.923 371.478,250.590 372.017 C 249.803 373.289,241.442 375.475,236.929 375.588 C 236.669 375.595,236.219 375.837,235.929 376.127 C 234.458 377.592,232.888 378.213,230.019 378.465 C 208.406 380.362,164.942 379.674,161.810 377.386 C 161.364 377.061,160.636 376.532,160.192 376.211 C 159.747 375.891,157.497 375.346,155.192 375.001 C 149.680 374.175,148.263 373.770,146.907 372.629 C 145.583 371.515,143.639 370.937,139.400 370.400 C 135.144 369.860,133.432 369.344,132.051 368.182 C 131.355 367.596,129.739 366.926,128.133 366.557 C 123.921 365.591,122.025 364.810,121.336 363.758 C 120.924 363.129,119.922 362.570,118.452 362.147 C 115.451 361.285,114.015 360.536,112.738 359.170 C 112.154 358.546,111.164 357.919,110.538 357.777 C 106.898 356.954,106.164 356.625,104.726 355.172 C 103.875 354.313,102.689 353.502,102.089 353.369 C 99.466 352.789,98.361 352.267,96.734 350.837 C 95.780 349.999,94.239 348.927,93.308 348.453 C 92.359 347.970,91.340 347.057,90.986 346.372 C 90.582 345.593,89.715 344.878,88.581 344.392 C 87.505 343.930,86.499 343.124,86.023 342.341 C 85.591 341.632,84.465 340.680,83.519 340.226 C 82.574 339.771,81.448 338.860,81.017 338.200 C 80.586 337.540,79.394 336.593,78.368 336.095 C 77.341 335.597,75.894 334.557,75.151 333.784 C 74.408 333.010,72.954 331.850,71.920 331.205 C 70.885 330.559,69.725 329.529,69.342 328.916 C 68.958 328.302,67.825 326.979,66.822 325.976 C 64.026 323.177,60.351 318.973,59.436 317.528 C 58.983 316.814,57.908 315.593,57.046 314.815 C 56.183 314.037,55.235 312.819,54.937 312.110 C 54.640 311.400,53.842 310.532,53.164 310.181 C 52.383 309.777,51.642 308.893,51.147 307.772 C 50.665 306.683,49.908 305.766,49.181 305.390 C 48.358 304.964,47.650 304.011,46.853 302.253 C 46.223 300.864,45.414 299.614,45.055 299.476 C 44.308 299.190,43.010 296.578,42.405 294.145 C 42.127 293.027,41.560 292.159,40.655 291.469 C 39.248 290.396,38.841 289.603,37.835 285.968 C 37.378 284.315,36.961 283.619,36.228 283.285 C 35.044 282.746,34.324 281.436,33.406 278.146 C 32.915 276.388,32.466 275.576,31.824 275.284 C 30.641 274.745,29.765 272.818,29.183 269.475 C 28.830 267.447,28.415 266.427,27.557 265.489 C 26.180 263.981,25.864 263.074,24.820 257.644 C 24.381 255.358,23.737 253.173,23.390 252.788 C 22.263 251.543,21.287 248.283,20.819 244.197 C 20.140 238.275,19.672 235.901,18.841 234.162 C 15.279 226.706,15.438 182.086,19.051 175.176 C 19.809 173.725,20.189 172.035,20.632 168.133 C 21.427 161.131,21.883 159.084,23.022 157.405 C 23.995 155.972,24.190 155.323,25.405 149.507 C 25.897 147.151,26.372 146.030,27.398 144.802 C 28.339 143.677,28.877 142.496,29.182 140.895 C 29.963 136.780,30.396 135.674,31.632 134.635 C 32.413 133.977,33.143 132.739,33.671 131.176 C 34.137 129.796,35.161 127.969,36.034 126.961 C 36.913 125.945,37.840 124.288,38.192 123.102 C 38.547 121.905,39.378 120.426,40.152 119.612 C 40.927 118.798,41.964 116.951,42.602 115.250 C 43.403 113.113,44.009 112.128,44.801 111.673 C 45.617 111.205,46.075 110.430,46.605 108.623 C 47.178 106.666,47.719 105.816,49.416 104.200 C 50.571 103.100,51.631 101.815,51.771 101.345 C 51.911 100.874,52.738 100.018,53.609 99.442 C 54.504 98.849,55.446 97.786,55.776 96.995 C 56.110 96.195,56.959 95.243,57.757 94.772 C 58.592 94.280,59.495 93.244,60.002 92.197 C 60.530 91.105,61.290 90.250,62.019 89.928 C 62.681 89.634,63.358 88.921,63.582 88.281 C 63.798 87.660,64.890 86.217,66.008 85.076 C 67.126 83.934,69.156 81.859,70.520 80.463 C 71.884 79.068,73.765 77.575,74.699 77.145 C 75.698 76.686,76.650 75.877,77.008 75.184 C 77.364 74.495,78.411 73.603,79.521 73.040 C 80.568 72.509,81.678 71.601,81.989 71.021 C 82.299 70.441,83.416 69.497,84.470 68.923 C 85.524 68.350,86.657 67.468,86.987 66.964 C 87.317 66.459,88.445 65.466,89.494 64.757 C 90.542 64.048,92.220 62.713,93.222 61.790 C 94.225 60.868,95.755 59.884,96.622 59.603 C 97.490 59.323,98.705 58.491,99.322 57.755 C 100.192 56.718,101.161 56.197,103.620 55.441 C 105.897 54.742,107.071 54.140,107.766 53.314 C 108.449 52.502,109.649 51.875,111.826 51.192 C 113.952 50.525,115.305 49.827,116.159 48.955 C 116.980 48.117,118.416 47.355,120.400 46.703 C 122.225 46.103,123.915 45.234,124.715 44.484 C 125.650 43.607,126.692 43.126,128.315 42.821 C 133.753 41.800,134.767 41.521,135.269 40.913 C 136.175 39.815,138.856 38.877,142.400 38.419 C 147.833 37.715,149.572 37.262,150.988 36.182 C 152.799 34.801,154.142 34.455,160.263 33.789 C 163.194 33.471,166.394 32.875,167.484 32.446 C 169.253 31.748,175.968 30.246,179.000 29.869 C 182.998 29.372,215.778 29.644,219.830 30.208 M219.961 158.386 C 218.510 158.571,216.530 159.107,215.561 159.578 C 214.593 160.049,212.144 160.997,210.121 161.684 C 206.965 162.755,206.373 163.099,205.959 164.100 C 205.645 164.857,204.843 165.571,203.675 166.134 C 201.822 167.025,201.483 167.401,200.803 169.317 C 200.585 169.931,199.863 170.741,199.197 171.117 C 197.731 171.945,197.297 173.329,196.819 178.708 C 196.629 180.848,196.293 183.065,196.072 183.634 C 195.787 184.367,195.826 185.298,196.205 186.834 C 196.500 188.025,196.908 190.361,197.112 192.024 C 197.446 194.741,197.670 195.290,199.317 197.424 C 200.325 198.731,201.270 200.292,201.417 200.893 C 201.594 201.619,202.239 202.292,203.337 202.898 C 204.246 203.400,205.352 204.383,205.795 205.083 C 206.393 206.028,207.414 206.695,209.768 207.677 C 211.511 208.405,213.401 209.461,213.968 210.025 C 214.542 210.596,216.331 211.483,218.000 212.025 C 219.664 212.566,221.624 213.537,222.400 214.206 C 223.170 214.869,225.133 215.852,226.762 216.390 C 228.695 217.028,230.154 217.805,230.962 218.627 C 231.643 219.321,232.830 220.095,233.600 220.348 C 235.142 220.856,239.357 224.905,239.934 226.434 C 242.101 232.176,240.895 243.830,238.021 244.914 C 237.330 245.175,236.629 245.848,236.353 246.513 C 235.686 248.123,234.576 248.728,231.053 249.402 C 229.369 249.725,227.228 250.389,226.296 250.878 C 223.730 252.224,218.443 252.163,214.400 250.739 C 212.750 250.159,210.320 249.565,209.000 249.419 C 205.496 249.033,203.972 248.469,202.400 246.977 C 200.555 245.225,199.306 244.800,195.998 244.800 L 193.249 244.800 192.976 246.622 C 192.354 250.770,194.189 254.122,198.123 256.028 C 199.461 256.676,200.948 257.575,201.427 258.025 C 202.013 258.576,203.398 259.027,205.649 259.402 C 207.492 259.709,210.042 260.159,211.316 260.403 C 217.847 261.654,236.416 260.049,237.952 258.101 C 238.308 257.649,239.770 256.696,241.200 255.984 C 245.416 253.885,249.921 249.074,250.866 245.661 C 251.270 244.197,251.926 242.550,252.321 242.000 C 255.368 237.766,255.488 227.074,252.527 223.563 C 252.232 223.212,251.561 221.830,251.036 220.492 C 249.713 217.115,243.724 211.090,240.426 209.817 C 238.904 209.230,237.947 208.560,237.400 207.701 C 236.750 206.680,236.187 206.359,234.400 205.995 C 230.739 205.250,229.800 204.845,228.407 203.408 C 227.409 202.377,226.509 201.914,224.836 201.569 C 222.161 201.018,220.919 200.418,219.655 199.065 C 219.136 198.508,217.606 197.396,216.255 196.594 C 214.604 195.612,213.211 194.347,212.000 192.730 C 211.010 191.407,209.670 189.621,209.023 188.761 C 207.972 187.364,207.828 186.817,207.676 183.646 C 207.438 178.658,207.762 177.955,212.472 173.245 C 217.347 168.370,217.247 168.405,226.240 168.402 C 233.775 168.400,234.938 168.633,237.405 170.637 C 238.288 171.354,239.908 172.156,241.005 172.420 C 242.102 172.683,243.625 173.254,244.388 173.688 L 245.776 174.477 246.888 173.232 C 248.478 171.452,248.433 168.778,246.754 165.368 C 245.381 162.578,246.050 162.932,239.919 161.753 C 239.324 161.638,238.424 161.224,237.919 160.831 C 235.131 158.667,226.728 157.523,219.961 158.386 M161.908 161.301 L 160.817 163.400 160.695 199.600 L 160.574 235.800 159.668 239.000 C 159.170 240.760,158.526 243.341,158.237 244.735 C 157.250 249.500,151.426 251.605,144.132 249.834 C 136.824 248.058,136.121 248.402,136.491 253.570 C 136.733 256.950,137.814 258.615,140.181 259.252 C 141.072 259.492,142.702 259.949,143.805 260.269 C 149.109 261.806,162.280 260.007,163.842 257.533 C 164.374 256.691,165.463 255.687,166.263 255.301 C 167.581 254.666,167.839 254.255,168.996 250.949 C 169.699 248.942,170.707 246.602,171.237 245.749 L 172.200 244.200 172.318 204.200 C 172.383 182.200,172.332 163.625,172.204 162.923 C 171.868 161.071,168.360 159.200,165.229 159.201 L 163.000 159.202 161.908 161.301 " stroke="none" fill="#f9f9f9" fill-rule="evenodd"></path><path id="path1" d="M179.000 29.869 C 175.968 30.246,169.253 31.748,167.484 32.446 C 166.394 32.875,163.194 33.471,160.263 33.789 C 154.142 34.455,152.799 34.801,150.988 36.182 C 149.572 37.262,147.833 37.715,142.400 38.419 C 138.856 38.877,136.175 39.815,135.269 40.913 C 134.767 41.521,133.753 41.800,128.315 42.821 C 126.692 43.126,125.650 43.607,124.715 44.484 C 123.915 45.234,122.225 46.103,120.400 46.703 C 118.416 47.355,116.980 48.117,116.159 48.955 C 115.305 49.827,113.952 50.525,111.826 51.192 C 109.649 51.875,108.449 52.502,107.766 53.314 C 107.071 54.140,105.897 54.742,103.620 55.441 C 101.161 56.197,100.192 56.718,99.322 57.755 C 98.705 58.491,97.490 59.323,96.622 59.603 C 95.755 59.884,94.225 60.868,93.222 61.790 C 92.220 62.713,90.542 64.048,89.494 64.757 C 88.445 65.466,87.317 66.459,86.987 66.964 C 86.657 67.468,85.524 68.350,84.470 68.923 C 83.416 69.497,82.299 70.441,81.989 71.021 C 81.678 71.601,80.568 72.509,79.521 73.040 C 78.411 73.603,77.364 74.495,77.008 75.184 C 76.650 75.877,75.698 76.686,74.699 77.145 C 73.765 77.575,71.884 79.068,70.520 80.463 C 69.156 81.859,67.126 83.934,66.008 85.076 C 64.890 86.217,63.798 87.660,63.582 88.281 C 63.358 88.921,62.681 89.634,62.019 89.928 C 61.290 90.250,60.530 91.105,60.002 92.197 C 59.495 93.244,58.592 94.280,57.757 94.772 C 56.959 95.243,56.110 96.195,55.776 96.995 C 55.446 97.786,54.504 98.849,53.609 99.442 C 52.738 100.018,51.911 100.874,51.771 101.345 C 51.631 101.815,50.571 103.100,49.416 104.200 C 47.719 105.816,47.178 106.666,46.605 108.623 C 46.075 110.430,45.617 111.205,44.801 111.673 C 44.009 112.128,43.403 113.113,42.602 115.250 C 41.964 116.951,40.927 118.798,40.152 119.612 C 39.378 120.426,38.547 121.905,38.192 123.102 C 37.840 124.288,36.913 125.945,36.034 126.961 C 35.161 127.969,34.137 129.796,33.671 131.176 C 33.143 132.739,32.413 133.977,31.632 134.635 C 30.396 135.674,29.963 136.780,29.182 140.895 C 28.877 142.496,28.339 143.677,27.398 144.802 C 26.372 146.030,25.897 147.151,25.405 149.507 C 24.190 155.323,23.995 155.972,23.022 157.405 C 21.883 159.084,21.427 161.131,20.632 168.133 C 20.189 172.035,19.809 173.725,19.051 175.176 C 15.438 182.086,15.279 226.706,18.841 234.162 C 19.672 235.901,20.140 238.275,20.819 244.197 C 21.287 248.283,22.263 251.543,23.390 252.788 C 23.737 253.173,24.381 255.358,24.820 257.644 C 25.864 263.074,26.180 263.981,27.557 265.489 C 28.415 266.427,28.830 267.447,29.183 269.475 C 29.765 272.818,30.641 274.745,31.824 275.284 C 32.466 275.576,32.915 276.388,33.406 278.146 C 34.324 281.436,35.044 282.746,36.228 283.285 C 36.961 283.619,37.378 284.315,37.835 285.968 C 38.841 289.603,39.248 290.396,40.655 291.469 C 41.560 292.159,42.127 293.027,42.405 294.145 C 43.010 296.578,44.308 299.190,45.055 299.476 C 45.414 299.614,46.223 300.864,46.853 302.253 C 47.650 304.011,48.358 304.964,49.181 305.390 C 49.908 305.766,50.665 306.683,51.147 307.772 C 51.642 308.893,52.383 309.777,53.164 310.181 C 53.842 310.532,54.640 311.400,54.937 312.110 C 55.235 312.819,56.183 314.037,57.046 314.815 C 57.908 315.593,58.983 316.814,59.436 317.528 C 60.351 318.973,64.026 323.177,66.822 325.976 C 67.825 326.979,68.958 328.302,69.342 328.916 C 69.725 329.529,70.885 330.559,71.920 331.205 C 72.954 331.850,74.408 333.010,75.151 333.784 C 75.894 334.557,77.341 335.597,78.368 336.095 C 79.394 336.593,80.586 337.540,81.017 338.200 C 81.448 338.860,82.574 339.771,83.519 340.226 C 84.465 340.680,85.591 341.632,86.023 342.341 C 86.499 343.124,87.505 343.930,88.581 344.392 C 89.715 344.878,90.582 345.593,90.986 346.372 C 91.340 347.057,92.359 347.970,93.308 348.453 C 94.239 348.927,95.780 349.999,96.734 350.837 C 98.361 352.267,99.466 352.789,102.089 353.369 C 102.689 353.502,103.875 354.313,104.726 355.172 C 106.164 356.625,106.898 356.954,110.538 357.777 C 111.164 357.919,112.154 358.546,112.738 359.170 C 114.015 360.536,115.451 361.285,118.452 362.147 C 119.922 362.570,120.924 363.129,121.336 363.758 C 122.025 364.810,123.921 365.591,128.133 366.557 C 129.739 366.926,131.355 367.596,132.051 368.182 C 133.432 369.344,135.144 369.860,139.400 370.400 C 143.639 370.937,145.583 371.515,146.907 372.629 C 148.263 373.770,149.680 374.175,155.192 375.001 C 157.497 375.346,159.747 375.891,160.192 376.211 C 160.636 376.532,161.364 377.061,161.810 377.386 C 164.942 379.674,208.406 380.362,230.019 378.465 C 232.888 378.213,234.458 377.592,235.929 376.127 C 236.219 375.837,236.669 375.595,236.929 375.588 C 241.442 375.475,249.803 373.289,250.590 372.017 C 250.923 371.478,253.204 370.900,257.012 370.389 C 261.049 369.848,262.673 369.345,264.291 368.137 C 265.098 367.534,266.960 366.879,269.260 366.387 C 273.102 365.566,274.494 364.919,275.182 363.633 C 275.443 363.145,276.697 362.539,278.637 361.963 C 280.912 361.288,282.083 360.673,283.273 359.530 C 284.149 358.688,285.114 358.000,285.418 358.000 C 286.784 358.000,290.574 356.199,291.811 354.962 C 292.560 354.213,293.443 353.600,293.773 353.600 C 295.420 353.600,298.303 352.242,299.514 350.895 C 300.237 350.091,301.675 348.976,302.709 348.417 C 303.753 347.853,304.829 346.902,305.126 346.281 C 305.481 345.541,306.381 344.845,307.791 344.221 C 309.098 343.643,310.025 342.951,310.190 342.431 C 310.338 341.965,311.301 341.155,312.330 340.631 C 313.358 340.107,315.248 338.759,316.528 337.635 C 317.809 336.511,319.370 335.326,319.997 335.002 C 320.624 334.677,321.528 333.863,322.006 333.191 C 322.484 332.520,323.527 331.662,324.324 331.285 C 325.120 330.908,326.192 329.970,326.705 329.200 C 327.217 328.430,328.304 327.342,329.119 326.783 C 329.933 326.224,330.914 325.104,331.298 324.295 C 331.682 323.485,332.535 322.544,333.194 322.203 C 333.853 321.862,334.752 320.878,335.192 320.015 C 335.633 319.152,336.614 317.972,337.374 317.392 C 338.134 316.813,339.299 315.493,339.962 314.460 C 340.625 313.427,341.739 312.045,342.437 311.391 C 343.136 310.736,344.203 309.432,344.808 308.493 C 345.414 307.555,346.404 306.398,347.008 305.922 C 347.612 305.447,348.523 304.117,349.032 302.967 C 349.540 301.817,350.300 300.634,350.721 300.338 C 351.614 299.709,352.902 297.299,353.608 294.936 C 353.891 293.990,354.576 292.925,355.199 292.464 C 355.862 291.974,356.721 290.585,357.380 288.938 C 357.979 287.444,359.064 285.562,359.792 284.756 C 360.521 283.950,361.247 282.685,361.407 281.945 C 361.797 280.133,362.758 278.314,363.662 277.676 C 364.736 276.918,365.622 275.012,366.461 271.654 C 366.950 269.698,367.590 268.261,368.366 267.377 C 369.224 266.401,369.708 265.214,370.183 262.923 C 371.216 257.945,371.630 256.680,372.609 255.516 C 373.694 254.226,374.134 252.360,374.991 245.412 C 375.340 242.575,375.884 239.791,376.199 239.227 C 378.468 235.156,378.720 233.436,379.218 218.600 C 380.064 193.435,379.155 176.707,376.620 170.800 C 376.066 169.508,375.403 166.620,375.015 163.800 C 374.237 158.153,373.900 156.953,372.520 154.920 C 371.839 153.917,371.218 152.043,370.691 149.401 C 369.867 145.267,368.775 142.519,367.808 142.148 C 367.488 142.025,366.960 140.552,366.560 138.667 C 365.957 135.825,365.665 135.204,364.312 133.896 C 363.133 132.755,362.551 131.705,361.904 129.555 C 361.214 127.257,360.762 126.485,359.526 125.492 C 358.687 124.818,358.000 124.059,358.000 123.806 C 358.000 122.109,356.564 118.904,355.198 117.552 C 354.165 116.528,353.462 115.329,353.035 113.862 C 352.681 112.644,351.860 111.106,351.168 110.365 C 350.488 109.638,349.398 107.984,348.745 106.691 C 348.025 105.264,347.094 104.075,346.379 103.669 C 345.731 103.301,344.851 102.259,344.424 101.353 C 343.974 100.400,343.069 99.366,342.278 98.899 C 341.525 98.455,340.570 97.396,340.155 96.546 C 339.740 95.696,338.824 94.640,338.120 94.200 C 337.416 93.760,336.660 92.904,336.440 92.297 C 336.220 91.690,335.165 90.250,334.097 89.097 C 333.029 87.944,331.535 86.190,330.778 85.200 C 330.020 84.211,328.867 82.951,328.216 82.400 C 327.565 81.850,326.157 80.555,325.087 79.522 C 324.017 78.488,322.340 77.255,321.360 76.781 C 320.362 76.297,319.323 75.424,318.998 74.795 C 318.638 74.099,317.655 73.328,316.409 72.765 C 315.304 72.266,314.400 71.653,314.400 71.404 C 314.400 70.767,312.377 68.943,311.316 68.623 C 310.830 68.477,309.872 67.648,309.186 66.783 C 308.501 65.917,307.368 64.938,306.670 64.606 C 305.971 64.274,304.500 63.163,303.400 62.137 C 302.300 61.110,300.605 59.918,299.634 59.487 C 298.662 59.056,297.438 58.194,296.913 57.570 C 296.226 56.753,295.037 56.155,292.664 55.431 C 290.138 54.661,289.168 54.154,288.507 53.259 C 287.873 52.401,286.904 51.867,284.860 51.246 C 283.175 50.734,281.426 49.857,280.432 49.027 C 279.528 48.271,277.818 47.371,276.632 47.026 C 275.443 46.681,273.699 45.751,272.746 44.955 C 270.597 43.160,270.078 42.963,265.563 42.236 C 263.558 41.914,261.615 41.375,261.244 41.040 C 259.932 39.852,256.954 38.848,253.400 38.395 C 248.668 37.792,246.775 37.291,245.789 36.378 C 244.439 35.129,241.667 34.388,236.179 33.807 C 230.450 33.201,229.001 32.920,227.800 32.181 C 224.461 30.127,218.091 29.591,197.830 29.660 C 188.134 29.693,179.660 29.787,179.000 29.869 M217.291 33.402 C 218.989 34.179,220.813 34.537,225.439 35.000 C 235.624 36.019,237.683 36.376,239.242 37.394 C 241.002 38.542,243.934 39.444,247.058 39.797 C 250.069 40.137,253.627 41.117,254.420 41.825 C 255.447 42.743,258.345 43.592,262.586 44.217 C 266.712 44.826,268.800 45.439,268.800 46.039 C 268.800 46.615,270.608 47.609,273.858 48.822 C 275.562 49.457,277.110 50.254,277.299 50.591 C 277.753 51.403,280.058 52.542,282.898 53.360 C 284.392 53.790,285.413 54.353,285.817 54.969 C 286.447 55.931,288.786 57.103,291.924 58.031 C 292.872 58.311,293.825 58.873,294.043 59.280 C 294.260 59.687,295.563 60.550,296.936 61.199 C 298.310 61.849,299.819 62.900,300.289 63.535 C 300.759 64.171,302.011 65.192,303.072 65.805 C 304.132 66.417,305.925 67.784,307.056 68.841 C 308.187 69.898,309.589 70.882,310.170 71.028 C 310.763 71.177,311.489 71.799,311.823 72.445 C 312.173 73.120,313.247 74.016,314.424 74.612 C 315.564 75.190,316.630 76.068,316.894 76.646 C 317.149 77.206,318.053 78.019,318.904 78.453 C 321.126 79.587,332.641 91.350,334.397 94.281 C 334.819 94.985,335.714 95.845,336.386 96.193 C 337.114 96.569,337.931 97.513,338.409 98.529 C 338.849 99.466,339.736 100.544,340.379 100.924 C 341.022 101.304,341.967 102.374,342.479 103.302 C 342.991 104.231,343.986 105.352,344.690 105.795 C 345.393 106.238,345.976 106.780,345.985 107.000 C 346.028 108.093,348.590 112.711,349.594 113.505 C 350.224 114.003,350.865 114.993,351.019 115.705 C 351.409 117.512,352.977 120.430,354.126 121.489 C 354.656 121.978,355.325 123.217,355.612 124.242 C 355.899 125.267,356.814 126.892,357.647 127.854 C 358.520 128.863,359.464 130.573,359.880 131.897 C 360.358 133.421,361.099 134.676,362.085 135.635 C 363.381 136.893,363.677 137.552,364.395 140.777 C 365.226 144.507,365.745 145.770,367.201 147.600 C 367.713 148.244,368.274 150.152,368.780 152.967 C 369.303 155.883,370.017 158.274,370.930 160.167 C 372.370 163.153,372.893 165.535,373.612 172.400 C 373.883 174.991,374.510 177.945,375.248 180.112 C 377.799 187.601,378.074 221.322,375.635 227.511 C 374.909 229.353,373.874 235.080,372.787 243.267 C 372.483 245.559,371.935 247.522,371.170 249.060 C 370.533 250.341,369.737 252.741,369.400 254.394 C 368.106 260.740,367.890 261.448,366.750 263.082 C 365.743 264.524,365.107 266.408,363.872 271.604 C 363.740 272.156,363.041 273.259,362.317 274.054 C 361.592 274.850,360.564 276.648,360.031 278.051 C 359.497 279.453,358.569 281.140,357.968 281.800 C 357.367 282.460,356.309 284.259,355.618 285.799 C 354.926 287.338,353.932 289.048,353.408 289.599 C 352.884 290.149,352.061 291.659,351.579 292.952 C 351.098 294.246,350.095 295.978,349.352 296.800 C 348.609 297.622,347.730 299.084,347.398 300.048 C 346.486 302.695,346.003 303.470,344.971 303.941 C 344.453 304.176,343.556 305.120,342.977 306.037 C 342.398 306.954,341.266 308.369,340.462 309.182 C 338.574 311.089,334.249 316.247,333.018 318.059 C 332.492 318.834,331.618 319.759,331.076 320.113 C 330.535 320.468,329.711 321.544,329.246 322.505 C 328.681 323.673,327.942 324.470,327.015 324.912 C 326.175 325.313,325.325 326.170,324.855 327.091 C 324.336 328.109,323.638 328.771,322.740 329.099 C 322.003 329.367,320.590 330.336,319.600 331.252 C 318.610 332.168,316.860 333.523,315.711 334.264 C 314.563 335.004,313.430 335.971,313.194 336.411 C 312.958 336.852,311.767 337.776,310.547 338.464 C 309.328 339.153,308.141 340.132,307.909 340.640 C 307.677 341.149,306.710 341.930,305.760 342.377 C 304.810 342.824,303.620 343.750,303.116 344.435 C 302.612 345.121,301.390 346.101,300.400 346.613 C 299.410 347.125,297.729 348.274,296.664 349.166 C 295.379 350.242,293.826 351.056,292.046 351.586 C 290.283 352.111,288.970 352.796,288.214 353.585 C 287.581 354.246,286.240 355.078,285.232 355.436 C 284.224 355.794,282.920 356.263,282.333 356.478 C 281.746 356.694,280.686 357.388,279.976 358.021 C 279.267 358.654,277.525 359.559,276.106 360.031 C 274.687 360.504,272.932 361.411,272.208 362.047 C 270.592 363.466,268.760 364.124,264.600 364.780 C 262.840 365.058,260.770 365.607,260.000 366.000 C 259.230 366.394,257.880 367.085,257.000 367.536 C 256.120 367.988,253.889 368.559,252.043 368.805 C 248.664 369.257,244.626 370.511,244.169 371.251 C 243.678 372.045,237.561 373.324,230.000 374.212 C 228.790 374.354,226.888 374.880,225.774 375.379 C 219.599 378.149,176.219 377.909,170.028 375.071 C 169.038 374.617,166.829 374.129,165.028 373.964 C 160.516 373.553,154.419 372.466,153.378 371.886 C 152.898 371.619,151.763 370.992,150.856 370.494 C 149.869 369.951,147.340 369.269,144.555 368.792 C 141.996 368.355,139.429 367.733,138.851 367.411 C 135.907 365.771,134.254 365.179,131.074 364.624 C 127.332 363.971,125.842 363.372,124.628 362.031 C 124.204 361.563,122.627 360.806,121.123 360.349 C 119.398 359.825,117.710 358.958,116.549 357.999 C 115.538 357.163,113.875 356.253,112.855 355.977 C 110.524 355.347,108.695 354.454,108.279 353.743 C 107.857 353.023,105.433 351.801,103.270 351.219 C 102.321 350.963,100.975 350.210,100.279 349.544 C 99.582 348.879,97.887 347.705,96.511 346.935 C 95.135 346.166,93.646 345.026,93.202 344.402 C 92.758 343.779,91.620 342.894,90.673 342.435 C 89.727 341.977,88.554 341.063,88.066 340.404 C 87.579 339.746,86.480 338.849,85.624 338.412 C 84.768 337.975,83.677 337.070,83.200 336.400 C 82.723 335.730,81.650 334.834,80.817 334.408 C 79.983 333.983,78.846 333.095,78.291 332.435 C 77.735 331.775,76.138 330.503,74.741 329.608 C 73.343 328.714,71.801 327.414,71.313 326.721 C 70.825 326.028,69.663 324.660,68.731 323.682 C 67.799 322.704,66.527 321.250,65.904 320.452 C 64.514 318.667,61.673 315.500,58.956 312.704 C 57.832 311.547,56.789 310.208,56.638 309.729 C 56.488 309.250,55.749 308.495,54.997 308.051 C 54.245 307.607,53.376 306.638,53.066 305.897 C 52.756 305.155,51.760 303.960,50.851 303.241 C 49.943 302.521,49.200 301.693,49.200 301.400 C 49.200 300.308,47.527 297.016,46.260 295.614 C 45.539 294.816,44.715 293.324,44.428 292.298 C 44.140 291.273,43.323 289.751,42.611 288.917 C 41.164 287.220,40.243 285.546,39.846 283.890 C 39.700 283.279,38.959 282.093,38.201 281.254 C 37.419 280.389,36.292 278.339,35.597 276.517 C 34.874 274.625,33.917 272.902,33.267 272.323 C 32.378 271.530,31.991 270.568,31.277 267.370 C 30.450 263.666,30.101 262.838,28.316 260.345 C 27.921 259.793,27.308 257.367,26.863 254.594 C 26.132 250.040,25.758 248.867,23.994 245.600 C 23.263 244.247,22.951 242.231,22.000 232.739 C 21.765 230.396,21.032 226.346,20.371 223.739 C 18.140 214.948,18.250 192.144,20.560 184.502 C 21.165 182.500,21.878 178.351,22.374 173.943 C 23.089 167.585,23.345 166.365,24.428 164.143 C 25.108 162.747,25.926 160.118,26.246 158.302 C 27.326 152.170,28.017 149.886,29.197 148.542 C 29.934 147.703,30.495 146.436,30.797 144.925 C 31.734 140.252,32.151 139.095,33.462 137.526 C 34.198 136.645,35.081 134.956,35.425 133.772 C 35.811 132.446,36.512 131.194,37.253 130.510 C 38.656 129.215,39.783 127.177,40.191 125.200 C 40.354 124.413,41.145 123.100,41.998 122.200 C 42.948 121.198,43.854 119.628,44.421 118.000 C 44.959 116.456,45.859 114.864,46.638 114.079 C 47.360 113.352,48.235 111.899,48.584 110.849 C 48.942 109.771,50.040 108.024,51.109 106.831 C 52.149 105.670,53.304 104.176,53.677 103.510 C 54.049 102.844,54.905 101.964,55.580 101.554 C 56.255 101.143,57.183 100.041,57.644 99.104 C 58.105 98.167,59.042 97.040,59.728 96.600 C 60.414 96.160,61.361 95.111,61.834 94.268 C 62.306 93.426,63.250 92.398,63.930 91.984 C 64.611 91.570,65.537 90.508,65.988 89.624 C 66.439 88.740,67.341 87.741,67.992 87.404 C 68.643 87.067,69.386 86.389,69.642 85.896 C 70.349 84.537,75.336 79.800,77.107 78.804 C 77.968 78.320,78.978 77.407,79.352 76.774 C 79.727 76.138,80.814 75.277,81.782 74.849 C 82.745 74.423,83.833 73.616,84.201 73.055 C 84.568 72.495,85.628 71.591,86.556 71.047 C 87.485 70.503,88.954 69.369,89.822 68.527 C 90.690 67.685,92.030 66.564,92.800 66.036 C 93.570 65.508,94.949 64.317,95.865 63.389 C 96.896 62.345,98.042 61.606,98.873 61.450 C 99.612 61.312,101.071 60.492,102.115 59.629 C 103.205 58.729,105.120 57.693,106.609 57.197 C 108.036 56.722,109.940 55.718,110.840 54.967 C 111.740 54.215,112.632 53.600,112.823 53.600 C 113.921 53.600,117.902 51.723,118.774 50.794 C 119.434 50.091,121.005 49.306,123.177 48.592 C 125.046 47.978,126.986 47.051,127.522 46.515 C 128.782 45.254,129.627 44.956,134.088 44.198 C 138.545 43.441,140.050 42.988,141.275 42.035 C 142.570 41.028,144.371 40.519,149.081 39.827 C 153.217 39.219,155.636 38.453,156.827 37.375 C 157.790 36.504,162.195 35.726,169.000 35.224 C 172.300 34.981,175.990 34.498,177.200 34.152 C 178.410 33.806,180.210 33.282,181.200 32.988 C 182.563 32.584,186.894 32.447,199.052 32.427 L 215.103 32.400 217.291 33.402 M217.200 155.989 C 212.956 156.357,211.466 156.813,210.000 158.191 C 209.450 158.708,208.103 159.552,207.006 160.068 C 205.853 160.610,204.673 161.540,204.206 162.272 C 203.763 162.968,202.714 163.929,201.877 164.407 C 201.039 164.886,199.853 166.081,199.242 167.064 C 198.630 168.046,197.572 169.189,196.889 169.604 C 195.300 170.571,194.805 172.327,194.802 177.011 C 194.800 180.828,194.455 181.782,192.514 183.329 C 191.297 184.300,191.360 185.354,192.700 186.405 C 194.361 187.707,194.770 188.742,194.786 191.680 C 194.808 195.922,195.452 198.216,196.978 199.498 C 197.700 200.104,198.767 201.364,199.349 202.297 C 199.930 203.230,201.120 204.444,201.992 204.995 C 202.864 205.545,203.856 206.536,204.198 207.196 C 204.582 207.939,205.615 208.798,206.909 209.451 C 208.059 210.031,209.582 211.014,210.293 211.635 C 211.005 212.256,212.355 212.972,213.293 213.227 C 216.253 214.030,217.236 214.494,218.869 215.858 C 219.743 216.588,221.210 217.389,222.129 217.638 C 225.055 218.429,226.042 218.898,227.699 220.282 C 228.589 221.026,230.118 221.849,231.097 222.110 C 232.076 222.372,233.218 222.950,233.635 223.393 C 234.553 224.372,236.280 226.102,237.500 227.267 C 238.362 228.090,238.400 228.405,238.400 234.678 C 238.400 240.973,238.365 241.259,237.500 242.011 C 235.707 243.570,234.188 245.115,233.600 245.978 C 233.015 246.837,220.318 248.381,218.696 247.792 C 218.423 247.692,215.590 247.440,212.400 247.231 C 205.727 246.794,205.376 246.702,204.578 245.158 C 203.857 243.763,202.103 242.800,200.283 242.800 C 198.194 242.800,195.275 241.777,194.397 240.737 L 193.605 239.800 192.438 241.067 C 190.900 242.736,190.218 245.996,190.557 250.057 C 190.936 254.607,191.291 255.305,194.182 257.188 C 195.570 258.092,197.026 259.187,197.418 259.620 C 198.351 260.651,201.612 261.600,204.224 261.600 C 206.545 261.600,208.993 262.467,209.961 263.631 C 210.911 264.774,214.087 265.200,221.654 265.200 L 228.399 265.200 229.995 263.651 C 231.616 262.078,232.918 261.600,235.577 261.600 C 237.572 261.600,240.978 260.552,241.652 259.730 C 241.953 259.363,243.415 258.275,244.900 257.312 C 246.384 256.349,247.865 255.048,248.190 254.419 C 248.515 253.791,249.419 252.882,250.200 252.400 C 251.830 251.393,252.800 249.768,252.800 248.046 C 252.800 246.180,253.515 244.705,255.056 243.394 C 258.324 240.613,258.188 224.652,254.869 221.618 C 253.979 220.804,253.132 219.612,252.989 218.969 C 252.303 215.895,251.771 215.020,248.758 212.007 C 245.743 208.992,244.076 208.010,241.958 208.002 C 241.222 208.000,239.200 206.248,239.200 205.613 C 239.200 204.724,236.615 203.603,234.563 203.601 C 232.451 203.600,232.372 203.552,229.858 200.735 C 229.111 199.899,228.404 199.615,226.554 199.409 C 223.630 199.083,222.493 198.541,221.758 197.118 C 221.442 196.507,220.512 195.664,219.692 195.244 C 218.871 194.824,216.979 193.157,215.487 191.540 C 213.994 189.923,212.059 187.852,211.187 186.937 C 208.637 184.265,208.881 180.089,211.692 178.291 C 212.292 177.907,213.062 177.053,213.403 176.394 C 213.744 175.735,214.723 174.753,215.580 174.213 C 216.436 173.672,217.254 172.861,217.397 172.411 C 217.922 170.755,219.513 170.400,226.416 170.400 L 232.872 170.400 234.753 172.351 C 236.509 174.174,236.803 174.322,239.217 174.598 C 241.598 174.871,241.926 175.032,243.416 176.647 C 245.135 178.511,245.870 178.709,248.430 177.998 C 251.157 177.241,251.717 176.164,251.915 171.300 L 252.090 167.000 250.651 165.696 C 249.859 164.978,248.839 163.660,248.382 162.765 C 247.431 160.901,245.734 160.000,243.175 160.000 C 241.329 160.000,239.317 158.999,238.971 157.909 C 238.385 156.063,227.446 155.098,217.200 155.989 M161.704 156.768 C 161.212 157.238,160.551 158.113,160.237 158.712 C 159.923 159.310,158.931 160.512,158.033 161.381 L 156.400 162.962 156.385 199.181 C 156.369 237.661,156.146 245.134,154.972 246.431 C 154.346 247.123,153.691 247.200,148.435 247.200 C 141.733 247.200,140.368 246.913,138.514 245.116 C 136.206 242.880,134.376 245.334,134.075 251.068 C 133.681 258.560,134.802 261.026,138.800 261.468 C 141.438 261.760,142.987 262.486,144.297 264.042 C 145.270 265.199,145.275 265.200,150.000 265.200 L 154.729 265.200 155.751 263.985 C 157.044 262.449,159.059 261.600,161.413 261.600 C 163.710 261.600,164.492 261.188,165.528 259.432 C 165.979 258.668,167.093 257.572,168.004 256.997 C 168.993 256.373,169.894 255.393,170.240 254.567 C 170.558 253.805,171.436 252.498,172.191 251.663 C 174.607 248.988,174.534 250.341,174.706 205.200 C 174.877 160.110,174.848 159.362,172.818 157.418 C 171.190 155.857,163.151 155.387,161.704 156.768 M234.431 159.236 C 235.844 159.721,237.413 160.439,237.919 160.831 C 238.424 161.224,239.324 161.638,239.919 161.753 C 246.050 162.932,245.381 162.578,246.754 165.368 C 248.433 168.778,248.478 171.452,246.888 173.232 L 245.776 174.477 244.388 173.688 C 243.625 173.254,242.102 172.683,241.005 172.420 C 239.908 172.156,238.288 171.354,237.405 170.637 C 234.938 168.633,233.775 168.400,226.240 168.402 C 217.247 168.405,217.347 168.370,212.472 173.245 C 207.762 177.955,207.438 178.658,207.676 183.646 C 207.828 186.817,207.972 187.364,209.023 188.761 C 209.670 189.621,211.010 191.407,212.000 192.730 C 213.211 194.347,214.604 195.612,216.255 196.594 C 217.606 197.396,219.136 198.508,219.655 199.065 C 220.919 200.418,222.161 201.018,224.836 201.569 C 226.509 201.914,227.409 202.377,228.407 203.408 C 229.800 204.845,230.739 205.250,234.400 205.995 C 236.187 206.359,236.750 206.680,237.400 207.701 C 237.947 208.560,238.904 209.230,240.426 209.817 C 243.724 211.090,249.713 217.115,251.036 220.492 C 251.561 221.830,252.232 223.212,252.527 223.563 C 255.488 227.074,255.368 237.766,252.321 242.000 C 251.926 242.550,251.270 244.197,250.866 245.661 C 249.921 249.074,245.416 253.885,241.200 255.984 C 239.770 256.696,238.308 257.649,237.952 258.101 C 236.416 260.049,217.847 261.654,211.316 260.403 C 210.042 260.159,207.492 259.709,205.649 259.402 C 203.398 259.027,202.013 258.576,201.427 258.025 C 200.948 257.575,199.461 256.676,198.123 256.028 C 194.189 254.122,192.354 250.770,192.976 246.622 L 193.249 244.800 195.998 244.800 C 199.306 244.800,200.555 245.225,202.400 246.977 C 203.972 248.469,205.496 249.033,209.000 249.419 C 210.320 249.565,212.750 250.159,214.400 250.739 C 218.443 252.163,223.730 252.224,226.296 250.878 C 227.228 250.389,229.369 249.725,231.053 249.402 C 234.576 248.728,235.686 248.123,236.353 246.513 C 236.629 245.848,237.330 245.175,238.021 244.914 C 240.895 243.830,242.101 232.176,239.934 226.434 C 239.357 224.905,235.142 220.856,233.600 220.348 C 232.830 220.095,231.643 219.321,230.962 218.627 C 230.154 217.805,228.695 217.028,226.762 216.390 C 225.133 215.852,223.170 214.869,222.400 214.206 C 221.624 213.537,219.664 212.566,218.000 212.025 C 216.331 211.483,214.542 210.596,213.968 210.025 C 213.401 209.461,211.511 208.405,209.768 207.677 C 207.414 206.695,206.393 206.028,205.795 205.083 C 205.352 204.383,204.246 203.400,203.337 202.898 C 202.239 202.292,201.594 201.619,201.417 200.893 C 201.270 200.292,200.325 198.731,199.317 197.424 C 197.670 195.290,197.446 194.741,197.112 192.024 C 196.908 190.361,196.500 188.025,196.205 186.834 C 195.826 185.298,195.787 184.367,196.072 183.634 C 196.293 183.065,196.629 180.848,196.819 178.708 C 197.297 173.329,197.731 171.945,199.197 171.117 C 199.863 170.741,200.585 169.931,200.803 169.317 C 201.483 167.401,201.822 167.025,203.675 166.134 C 204.843 165.571,205.645 164.857,205.959 164.100 C 206.373 163.099,206.965 162.755,210.121 161.684 C 212.144 160.997,214.593 160.049,215.561 159.578 C 219.235 157.792,229.677 157.603,234.431 159.236 M169.715 160.423 C 172.684 162.031,172.455 158.172,172.318 204.200 L 172.200 244.200 171.237 245.749 C 170.707 246.602,169.699 248.942,168.996 250.949 C 167.839 254.255,167.581 254.666,166.263 255.301 C 165.463 255.687,164.374 256.691,163.842 257.533 C 162.280 260.007,149.109 261.806,143.805 260.269 C 142.702 259.949,141.072 259.492,140.181 259.252 C 137.814 258.615,136.733 256.950,136.491 253.570 C 136.121 248.402,136.824 248.058,144.132 249.834 C 151.426 251.605,157.250 249.500,158.237 244.735 C 158.526 243.341,159.170 240.760,159.668 239.000 L 160.574 235.800 160.695 199.600 L 160.817 163.400 161.908 161.301 L 163.000 159.202 165.229 159.201 C 166.957 159.200,167.965 159.475,169.715 160.423 " stroke="none" fill="#8c8c8c" fill-rule="evenodd"></path><path id="path2" d="M181.200 32.988 C 180.210 33.282,178.410 33.806,177.200 34.152 C 175.990 34.498,172.300 34.981,169.000 35.224 C 162.195 35.726,157.790 36.504,156.827 37.375 C 155.636 38.453,153.217 39.219,149.081 39.827 C 144.371 40.519,142.570 41.028,141.275 42.035 C 140.050 42.988,138.545 43.441,134.088 44.198 C 129.627 44.956,128.782 45.254,127.522 46.515 C 126.986 47.051,125.046 47.978,123.177 48.592 C 121.005 49.306,119.434 50.091,118.774 50.794 C 117.902 51.723,113.921 53.600,112.823 53.600 C 112.632 53.600,111.740 54.215,110.840 54.967 C 109.940 55.718,108.036 56.722,106.609 57.197 C 105.120 57.693,103.205 58.729,102.115 59.629 C 101.071 60.492,99.612 61.312,98.873 61.450 C 98.042 61.606,96.896 62.345,95.865 63.389 C 94.949 64.317,93.570 65.508,92.800 66.036 C 92.030 66.564,90.690 67.685,89.822 68.527 C 88.954 69.369,87.485 70.503,86.556 71.047 C 85.628 71.591,84.568 72.495,84.201 73.055 C 83.833 73.616,82.745 74.423,81.782 74.849 C 80.814 75.277,79.727 76.138,79.352 76.774 C 78.978 77.407,77.968 78.320,77.107 78.804 C 75.336 79.800,70.349 84.537,69.642 85.896 C 69.386 86.389,68.643 87.067,67.992 87.404 C 67.341 87.741,66.439 88.740,65.988 89.624 C 65.537 90.508,64.611 91.570,63.930 91.984 C 63.250 92.398,62.306 93.426,61.834 94.268 C 61.361 95.111,60.414 96.160,59.728 96.600 C 59.042 97.040,58.105 98.167,57.644 99.104 C 57.183 100.041,56.255 101.143,55.580 101.554 C 54.905 101.964,54.049 102.844,53.677 103.510 C 53.304 104.176,52.149 105.670,51.109 106.831 C 50.040 108.024,48.942 109.771,48.584 110.849 C 48.235 111.899,47.360 113.352,46.638 114.079 C 45.859 114.864,44.959 116.456,44.421 118.000 C 43.854 119.628,42.948 121.198,41.998 122.200 C 41.145 123.100,40.354 124.413,40.191 125.200 C 39.783 127.177,38.656 129.215,37.253 130.510 C 36.512 131.194,35.811 132.446,35.425 133.772 C 35.081 134.956,34.198 136.645,33.462 137.526 C 32.151 139.095,31.734 140.252,30.797 144.925 C 30.495 146.436,29.934 147.703,29.197 148.542 C 28.017 149.886,27.326 152.170,26.246 158.302 C 25.926 160.118,25.108 162.747,24.428 164.143 C 23.345 166.365,23.089 167.585,22.374 173.943 C 21.878 178.351,21.165 182.500,20.560 184.502 C 18.250 192.144,18.140 214.948,20.371 223.739 C 21.032 226.346,21.765 230.396,22.000 232.739 C 22.951 242.231,23.263 244.247,23.994 245.600 C 25.758 248.867,26.132 250.040,26.863 254.594 C 27.308 257.367,27.921 259.793,28.316 260.345 C 30.101 262.838,30.450 263.666,31.277 267.370 C 31.991 270.568,32.378 271.530,33.267 272.323 C 33.917 272.902,34.874 274.625,35.597 276.517 C 36.292 278.339,37.419 280.389,38.201 281.254 C 38.959 282.093,39.700 283.279,39.846 283.890 C 40.243 285.546,41.164 287.220,42.611 288.917 C 43.323 289.751,44.140 291.273,44.428 292.298 C 44.715 293.324,45.539 294.816,46.260 295.614 C 47.527 297.016,49.200 300.308,49.200 301.400 C 49.200 301.693,49.943 302.521,50.851 303.241 C 51.760 303.960,52.756 305.155,53.066 305.897 C 53.376 306.638,54.245 307.607,54.997 308.051 C 55.749 308.495,56.488 309.250,56.638 309.729 C 56.789 310.208,57.832 311.547,58.956 312.704 C 61.673 315.500,64.514 318.667,65.904 320.452 C 66.527 321.250,67.799 322.704,68.731 323.682 C 69.663 324.660,70.825 326.028,71.313 326.721 C 71.801 327.414,73.343 328.714,74.741 329.608 C 76.138 330.503,77.735 331.775,78.291 332.435 C 78.846 333.095,79.983 333.983,80.817 334.408 C 81.650 334.834,82.723 335.730,83.200 336.400 C 83.677 337.070,84.768 337.975,85.624 338.412 C 86.480 338.849,87.579 339.746,88.066 340.404 C 88.554 341.063,89.727 341.977,90.673 342.435 C 91.620 342.894,92.758 343.779,93.202 344.402 C 93.646 345.026,95.135 346.166,96.511 346.935 C 97.887 347.705,99.582 348.879,100.279 349.544 C 100.975 350.210,102.321 350.963,103.270 351.219 C 105.433 351.801,107.857 353.023,108.279 353.743 C 108.695 354.454,110.524 355.347,112.855 355.977 C 113.875 356.253,115.538 357.163,116.549 357.999 C 117.710 358.958,119.398 359.825,121.123 360.349 C 122.627 360.806,124.204 361.563,124.628 362.031 C 125.842 363.372,127.332 363.971,131.074 364.624 C 134.254 365.179,135.907 365.771,138.851 367.411 C 139.429 367.733,141.996 368.355,144.555 368.792 C 147.340 369.269,149.869 369.951,150.856 370.494 C 151.763 370.992,152.898 371.619,153.378 371.886 C 154.419 372.466,160.516 373.553,165.028 373.964 C 166.829 374.129,169.038 374.617,170.028 375.071 C 176.219 377.909,219.599 378.149,225.774 375.379 C 226.888 374.880,228.790 374.354,230.000 374.212 C 237.561 373.324,243.678 372.045,244.169 371.251 C 244.626 370.511,248.664 369.257,252.043 368.805 C 253.889 368.559,256.120 367.988,257.000 367.536 C 257.880 367.085,259.230 366.394,260.000 366.000 C 260.770 365.607,262.840 365.058,264.600 364.780 C 268.760 364.124,270.592 363.466,272.208 362.047 C 272.932 361.411,274.687 360.504,276.106 360.031 C 277.525 359.559,279.267 358.654,279.976 358.021 C 280.686 357.388,281.746 356.694,282.333 356.478 C 282.920 356.263,284.224 355.794,285.232 355.436 C 286.240 355.078,287.581 354.246,288.214 353.585 C 288.970 352.796,290.283 352.111,292.046 351.586 C 293.826 351.056,295.379 350.242,296.664 349.166 C 297.729 348.274,299.410 347.125,300.400 346.613 C 301.390 346.101,302.612 345.121,303.116 344.435 C 303.620 343.750,304.810 342.824,305.760 342.377 C 306.710 341.930,307.677 341.149,307.909 340.640 C 308.141 340.132,309.328 339.153,310.547 338.464 C 311.767 337.776,312.958 336.852,313.194 336.411 C 313.430 335.971,314.563 335.004,315.711 334.264 C 316.860 333.523,318.610 332.168,319.600 331.252 C 320.590 330.336,322.003 329.367,322.740 329.099 C 323.638 328.771,324.336 328.109,324.855 327.091 C 325.325 326.170,326.175 325.313,327.015 324.912 C 327.942 324.470,328.681 323.673,329.246 322.505 C 329.711 321.544,330.535 320.468,331.076 320.113 C 331.618 319.759,332.492 318.834,333.018 318.059 C 334.249 316.247,338.574 311.089,340.462 309.182 C 341.266 308.369,342.398 306.954,342.977 306.037 C 343.556 305.120,344.453 304.176,344.971 303.941 C 346.003 303.470,346.486 302.695,347.398 300.048 C 347.730 299.084,348.609 297.622,349.352 296.800 C 350.095 295.978,351.098 294.246,351.579 292.952 C 352.061 291.659,352.884 290.149,353.408 289.599 C 353.932 289.048,354.926 287.338,355.618 285.799 C 356.309 284.259,357.367 282.460,357.968 281.800 C 358.569 281.140,359.497 279.453,360.031 278.051 C 360.564 276.648,361.592 274.850,362.317 274.054 C 363.041 273.259,363.740 272.156,363.872 271.604 C 365.107 266.408,365.743 264.524,366.750 263.082 C 367.890 261.448,368.106 260.740,369.400 254.394 C 369.737 252.741,370.533 250.341,371.170 249.060 C 371.935 247.522,372.483 245.559,372.787 243.267 C 373.874 235.080,374.909 229.353,375.635 227.511 C 378.074 221.322,377.799 187.601,375.248 180.112 C 374.510 177.945,373.883 174.991,373.612 172.400 C 372.893 165.535,372.370 163.153,370.930 160.167 C 370.017 158.274,369.303 155.883,368.780 152.967 C 368.274 150.152,367.713 148.244,367.201 147.600 C 365.745 145.770,365.226 144.507,364.395 140.777 C 363.677 137.552,363.381 136.893,362.085 135.635 C 361.099 134.676,360.358 133.421,359.880 131.897 C 359.464 130.573,358.520 128.863,357.647 127.854 C 356.814 126.892,355.899 125.267,355.612 124.242 C 355.325 123.217,354.656 121.978,354.126 121.489 C 352.977 120.430,351.409 117.512,351.019 115.705 C 350.865 114.993,350.224 114.003,349.594 113.505 C 348.590 112.711,346.028 108.093,345.985 107.000 C 345.976 106.780,345.393 106.238,344.690 105.795 C 343.986 105.352,342.991 104.231,342.479 103.302 C 341.967 102.374,341.022 101.304,340.379 100.924 C 339.736 100.544,338.849 99.466,338.409 98.529 C 337.931 97.513,337.114 96.569,336.386 96.193 C 335.714 95.845,334.819 94.985,334.397 94.281 C 332.641 91.350,321.126 79.587,318.904 78.453 C 318.053 78.019,317.149 77.206,316.894 76.646 C 316.630 76.068,315.564 75.190,314.424 74.612 C 313.247 74.016,312.173 73.120,311.823 72.445 C 311.489 71.799,310.763 71.177,310.170 71.028 C 309.589 70.882,308.187 69.898,307.056 68.841 C 305.925 67.784,304.132 66.417,303.072 65.805 C 302.011 65.192,300.759 64.171,300.289 63.535 C 299.819 62.900,298.310 61.849,296.936 61.199 C 295.563 60.550,294.260 59.687,294.043 59.280 C 293.825 58.873,292.872 58.311,291.924 58.031 C 288.786 57.103,286.447 55.931,285.817 54.969 C 285.413 54.353,284.392 53.790,282.898 53.360 C 280.058 52.542,277.753 51.403,277.299 50.591 C 277.110 50.254,275.562 49.457,273.858 48.822 C 270.608 47.609,268.800 46.615,268.800 46.039 C 268.800 45.439,266.712 44.826,262.586 44.217 C 258.345 43.592,255.447 42.743,254.420 41.825 C 253.627 41.117,250.069 40.137,247.058 39.797 C 243.934 39.444,241.002 38.542,239.242 37.394 C 237.683 36.376,235.624 36.019,225.439 35.000 C 220.813 34.537,218.989 34.179,217.291 33.402 L 215.103 32.400 199.052 32.427 C 186.894 32.447,182.563 32.584,181.200 32.988 M237.626 156.614 C 238.241 156.931,238.846 157.514,238.971 157.909 C 239.317 158.999,241.329 160.000,243.175 160.000 C 245.734 160.000,247.431 160.901,248.382 162.765 C 248.839 163.660,249.859 164.978,250.651 165.696 L 252.090 167.000 251.915 171.300 C 251.717 176.164,251.157 177.241,248.430 177.998 C 245.870 178.709,245.135 178.511,243.416 176.647 C 241.926 175.032,241.598 174.871,239.217 174.598 C 236.803 174.322,236.509 174.174,234.753 172.351 L 232.872 170.400 226.416 170.400 C 219.513 170.400,217.922 170.755,217.397 172.411 C 217.254 172.861,216.436 173.672,215.580 174.213 C 214.723 174.753,213.744 175.735,213.403 176.394 C 213.062 177.053,212.292 177.907,211.692 178.291 C 208.881 180.089,208.637 184.265,211.187 186.937 C 212.059 187.852,213.994 189.923,215.487 191.540 C 216.979 193.157,218.871 194.824,219.692 195.244 C 220.512 195.664,221.442 196.507,221.758 197.118 C 222.493 198.541,223.630 199.083,226.554 199.409 C 228.404 199.615,229.111 199.899,229.858 200.735 C 232.372 203.552,232.451 203.600,234.563 203.601 C 236.615 203.603,239.200 204.724,239.200 205.613 C 239.200 206.248,241.222 208.000,241.958 208.002 C 244.076 208.010,245.743 208.992,248.758 212.007 C 251.771 215.020,252.303 215.895,252.989 218.969 C 253.132 219.612,253.979 220.804,254.869 221.618 C 258.188 224.652,258.324 240.613,255.056 243.394 C 253.515 244.705,252.800 246.180,252.800 248.046 C 252.800 249.768,251.830 251.393,250.200 252.400 C 249.419 252.882,248.515 253.791,248.190 254.419 C 247.865 255.048,246.384 256.349,244.900 257.312 C 243.415 258.275,241.953 259.363,241.652 259.730 C 240.978 260.552,237.572 261.600,235.577 261.600 C 232.918 261.600,231.616 262.078,229.995 263.651 L 228.399 265.200 221.654 265.200 C 214.087 265.200,210.911 264.774,209.961 263.631 C 208.993 262.467,206.545 261.600,204.224 261.600 C 201.612 261.600,198.351 260.651,197.418 259.620 C 197.026 259.187,195.570 258.092,194.182 257.188 C 191.291 255.305,190.936 254.607,190.557 250.057 C 190.218 245.996,190.900 242.736,192.438 241.067 L 193.605 239.800 194.397 240.737 C 195.275 241.777,198.194 242.800,200.283 242.800 C 202.103 242.800,203.857 243.763,204.578 245.158 C 205.376 246.702,205.727 246.794,212.400 247.231 C 215.590 247.440,218.423 247.692,218.696 247.792 C 220.318 248.381,233.015 246.837,233.600 245.978 C 234.188 245.115,235.707 243.570,237.500 242.011 C 238.365 241.259,238.400 240.973,238.400 234.678 C 238.400 228.405,238.362 228.090,237.500 227.267 C 236.280 226.102,234.553 224.372,233.635 223.393 C 233.218 222.950,232.076 222.372,231.097 222.110 C 230.118 221.849,228.589 221.026,227.699 220.282 C 226.042 218.898,225.055 218.429,222.129 217.638 C 221.210 217.389,219.743 216.588,218.869 215.858 C 217.236 214.494,216.253 214.030,213.293 213.227 C 212.355 212.972,211.005 212.256,210.293 211.635 C 209.582 211.014,208.059 210.031,206.909 209.451 C 205.615 208.798,204.582 207.939,204.198 207.196 C 203.856 206.536,202.864 205.545,201.992 204.995 C 201.120 204.444,199.930 203.230,199.349 202.297 C 198.767 201.364,197.700 200.104,196.978 199.498 C 195.452 198.216,194.808 195.922,194.786 191.680 C 194.770 188.742,194.361 187.707,192.700 186.405 C 191.360 185.354,191.297 184.300,192.514 183.329 C 194.455 181.782,194.800 180.828,194.802 177.011 C 194.805 172.327,195.300 170.571,196.889 169.604 C 197.572 169.189,198.630 168.046,199.242 167.064 C 199.853 166.081,201.039 164.886,201.877 164.407 C 202.714 163.929,203.763 162.968,204.206 162.272 C 204.673 161.540,205.853 160.610,207.006 160.068 C 208.103 159.552,209.450 158.708,210.000 158.191 C 212.577 155.769,233.664 154.565,237.626 156.614 M172.818 157.418 C 174.848 159.362,174.877 160.110,174.706 205.200 C 174.534 250.341,174.607 248.988,172.191 251.663 C 171.436 252.498,170.558 253.805,170.240 254.567 C 169.894 255.393,168.993 256.373,168.004 256.997 C 167.093 257.572,165.979 258.668,165.528 259.432 C 164.492 261.188,163.710 261.600,161.413 261.600 C 159.059 261.600,157.044 262.449,155.751 263.985 L 154.729 265.200 150.000 265.200 C 145.275 265.200,145.270 265.199,144.297 264.042 C 142.987 262.486,141.438 261.760,138.800 261.468 C 134.802 261.026,133.681 258.560,134.075 251.068 C 134.376 245.334,136.206 242.880,138.514 245.116 C 140.368 246.913,141.733 247.200,148.435 247.200 C 153.691 247.200,154.346 247.123,154.972 246.431 C 156.146 245.134,156.369 237.661,156.385 199.181 L 156.400 162.962 158.033 161.381 C 158.931 160.512,159.923 159.310,160.237 158.712 C 161.611 156.094,162.152 155.892,167.146 156.126 C 171.398 156.325,171.765 156.409,172.818 157.418 " stroke="none" fill="#040404" fill-rule="evenodd"></path></g></svg>